<?xml version="1.0" encoding="UTF-8"?>
<!DOCTYPE svg
PUBLIC "-//W3C//DTD SVG 1.1//EN"
       "http://www.w3.org/Graphics/SVG/1.1/DTD/svg11.dtd">
<svg viewBox="90 16 1466 775" width="1376px" height="759px" xmlns="http://www.w3.org/2000/svg" version="1.1">
   <line x1="1094" y1="699" x2="1084" y2="699" style="stroke:#333;stroke-width:1;"/>
   <line x1="929" y1="530" x2="919" y2="530" style="stroke:#333;stroke-width:1;"/>
   <line x1="1084" y1="699" x2="929" y2="530" style="stroke:#333;stroke-width:1;"/>
   <line x1="1086.5" y1="699" x2="1090.0355339059" y2="702.53553390593" style="stroke:#333;stroke-width:2;"/>
   <line x1="1086.5" y1="699" x2="1090.0355339059" y2="695.46446609407" style="stroke:#333;stroke-width:2;"/>
   <line x1="924" y1="530" x2="927.53553390593" y2="533.53553390593" style="stroke:#333;stroke-width:2;"/>
   <line x1="924" y1="530" x2="927.53553390593" y2="526.46446609407" style="stroke:#333;stroke-width:2;"/>
   <line x1="1219" y1="719" x2="1229" y2="719" style="stroke:#cb0;stroke-width:1;"/>
   <line x1="1331" y1="332" x2="1341" y2="332" style="stroke:#cb0;stroke-width:1;"/>
   <line x1="1229" y1="719" x2="1331" y2="332" style="stroke:#cb0;stroke-width:1;"/>
   <line x1="1226.5" y1="719" x2="1222.9644660941" y2="722.53553390593" style="stroke:#cb0;stroke-width:2;"/>
   <line x1="1226.5" y1="719" x2="1222.9644660941" y2="715.46446609407" style="stroke:#cb0;stroke-width:2;"/>
   <line x1="1336" y1="332" x2="1332.4644660941" y2="335.53553390593" style="stroke:#cb0;stroke-width:2;"/>
   <line x1="1336" y1="332" x2="1332.4644660941" y2="328.46446609407" style="stroke:#cb0;stroke-width:2;"/>
   <line x1="653" y1="509" x2="663" y2="509" style="stroke:#b0b;stroke-width:1;"/>
   <line x1="783" y1="530" x2="793" y2="530" style="stroke:#b0b;stroke-width:1;"/>
   <line x1="663" y1="509" x2="783" y2="530" style="stroke:#b0b;stroke-width:1;"/>
   <line x1="660.5" y1="509" x2="656.96446609407" y2="512.53553390593" style="stroke:#b0b;stroke-width:2;"/>
   <line x1="660.5" y1="509" x2="656.96446609407" y2="505.46446609407" style="stroke:#b0b;stroke-width:2;"/>
   <line x1="788" y1="530" x2="784.46446609407" y2="533.53553390593" style="stroke:#b0b;stroke-width:2;"/>
   <line x1="788" y1="530" x2="784.46446609407" y2="526.46446609407" style="stroke:#b0b;stroke-width:2;"/>
   <line x1="572" y1="489" x2="562" y2="489" style="stroke:#c00;stroke-width:1;"/>
   <line x1="464" y1="220" x2="454" y2="220" style="stroke:#c00;stroke-width:1;"/>
   <line x1="562" y1="489" x2="464" y2="220" style="stroke:#c00;stroke-width:1;"/>
   <line x1="564.5" y1="489" x2="568.03553390593" y2="492.53553390593" style="stroke:#c00;stroke-width:2;"/>
   <line x1="564.5" y1="489" x2="568.03553390593" y2="485.46446609407" style="stroke:#c00;stroke-width:2;"/>
   <line x1="459" y1="220" x2="462.53553390593" y2="223.53553390593" style="stroke:#c00;stroke-width:2;"/>
   <line x1="459" y1="220" x2="462.53553390593" y2="216.46446609407" style="stroke:#c00;stroke-width:2;"/>
   <line x1="1341" y1="619" x2="1331" y2="619" style="stroke:#c00;stroke-width:1;"/>
   <line x1="1332" y1="690" x2="1342" y2="690" style="stroke:#c00;stroke-width:1;"/>
   <line x1="1331" y1="619" x2="1332" y2="690" style="stroke:#c00;stroke-width:1;"/>
   <line x1="1333.5" y1="619" x2="1337.0355339059" y2="622.53553390593" style="stroke:#c00;stroke-width:2;"/>
   <line x1="1333.5" y1="619" x2="1337.0355339059" y2="615.46446609407" style="stroke:#c00;stroke-width:2;"/>
   <line x1="1337" y1="690" x2="1333.4644660941" y2="693.53553390593" style="stroke:#c00;stroke-width:2;"/>
   <line x1="1337" y1="690" x2="1333.4644660941" y2="686.46446609407" style="stroke:#c00;stroke-width:2;"/>
   <line x1="1180" y1="416" x2="1190" y2="416" style="stroke:#c00;stroke-width:1;"/>
   <line x1="1169" y1="167" x2="1159" y2="167" style="stroke:#c00;stroke-width:1;"/>
   <line x1="1190" y1="416" x2="1169" y2="167" style="stroke:#c00;stroke-width:1;"/>
   <line x1="1187.5" y1="416" x2="1183.9644660941" y2="419.53553390593" style="stroke:#c00;stroke-width:2;"/>
   <line x1="1187.5" y1="416" x2="1183.9644660941" y2="412.46446609407" style="stroke:#c00;stroke-width:2;"/>
   <line x1="1164" y1="167" x2="1167.5355339059" y2="170.53553390593" style="stroke:#c00;stroke-width:2;"/>
   <line x1="1164" y1="167" x2="1167.5355339059" y2="163.46446609407" style="stroke:#c00;stroke-width:2;"/>
   <line x1="1096" y1="436" x2="1086" y2="436" style="stroke:#0bf;stroke-width:1;"/>
   <line x1="929" y1="530" x2="919" y2="530" style="stroke:#0bf;stroke-width:1;"/>
   <line x1="1086" y1="436" x2="929" y2="530" style="stroke:#0bf;stroke-width:1;"/>
   <line x1="1088.5" y1="436" x2="1092.0355339059" y2="439.53553390593" style="stroke:#0bf;stroke-width:2;"/>
   <line x1="1088.5" y1="436" x2="1092.0355339059" y2="432.46446609407" style="stroke:#0bf;stroke-width:2;"/>
   <line x1="924" y1="530" x2="927.53553390593" y2="533.53553390593" style="stroke:#0bf;stroke-width:2;"/>
   <line x1="924" y1="530" x2="927.53553390593" y2="526.46446609407" style="stroke:#0bf;stroke-width:2;"/>
   <line x1="1096" y1="396" x2="1086" y2="396" style="stroke:#0b0;stroke-width:1;"/>
   <line x1="1084" y1="559" x2="1094" y2="559" style="stroke:#0b0;stroke-width:1;"/>
   <line x1="1086" y1="396" x2="1084" y2="559" style="stroke:#0b0;stroke-width:1;"/>
   <line x1="1088.5" y1="396" x2="1092.0355339059" y2="399.53553390593" style="stroke:#0b0;stroke-width:2;"/>
   <line x1="1088.5" y1="396" x2="1092.0355339059" y2="392.46446609407" style="stroke:#0b0;stroke-width:2;"/>
   <line x1="1089" y1="559" x2="1085.4644660941" y2="562.53553390593" style="stroke:#0b0;stroke-width:2;"/>
   <line x1="1089" y1="559" x2="1085.4644660941" y2="555.46446609407" style="stroke:#0b0;stroke-width:2;"/>
   <line x1="800" y1="370" x2="790" y2="370" style="stroke:#bbb;stroke-width:1;"/>
   <line x1="464" y1="220" x2="454" y2="220" style="stroke:#bbb;stroke-width:1;"/>
   <line x1="790" y1="370" x2="464" y2="220" style="stroke:#bbb;stroke-width:1;"/>
   <line x1="792.5" y1="370" x2="796.03553390593" y2="373.53553390593" style="stroke:#bbb;stroke-width:2;"/>
   <line x1="792.5" y1="370" x2="796.03553390593" y2="366.46446609407" style="stroke:#bbb;stroke-width:2;"/>
   <line x1="459" y1="220" x2="462.53553390593" y2="223.53553390593" style="stroke:#bbb;stroke-width:2;"/>
   <line x1="459" y1="220" x2="462.53553390593" y2="216.46446609407" style="stroke:#bbb;stroke-width:2;"/>
   <line x1="888" y1="350" x2="898" y2="350" style="stroke:#cb0;stroke-width:1;"/>
   <line x1="1086" y1="336" x2="1096" y2="336" style="stroke:#cb0;stroke-width:1;"/>
   <line x1="898" y1="350" x2="1086" y2="336" style="stroke:#cb0;stroke-width:1;"/>
   <line x1="895.5" y1="350" x2="891.96446609407" y2="353.53553390593" style="stroke:#cb0;stroke-width:2;"/>
   <line x1="895.5" y1="350" x2="891.96446609407" y2="346.46446609407" style="stroke:#cb0;stroke-width:2;"/>
   <line x1="1091" y1="336" x2="1087.4644660941" y2="339.53553390593" style="stroke:#cb0;stroke-width:2;"/>
   <line x1="1091" y1="336" x2="1087.4644660941" y2="332.46446609407" style="stroke:#cb0;stroke-width:2;"/>
   <line x1="326" y1="440" x2="316" y2="440" style="stroke:#c00;stroke-width:1;"/>
   <line x1="207" y1="377" x2="197" y2="377" style="stroke:#c00;stroke-width:1;"/>
   <line x1="316" y1="440" x2="207" y2="377" style="stroke:#c00;stroke-width:1;"/>
   <line x1="318.5" y1="440" x2="322.03553390593" y2="443.53553390593" style="stroke:#c00;stroke-width:2;"/>
   <line x1="318.5" y1="440" x2="322.03553390593" y2="436.46446609407" style="stroke:#c00;stroke-width:2;"/>
   <line x1="202" y1="377" x2="205.53553390593" y2="380.53553390593" style="stroke:#c00;stroke-width:2;"/>
   <line x1="202" y1="377" x2="205.53553390593" y2="373.46446609407" style="stroke:#c00;stroke-width:2;"/>
   <line x1="326" y1="460" x2="316" y2="460" style="stroke:#0b0;stroke-width:1;"/>
   <line x1="203" y1="563" x2="193" y2="563" style="stroke:#0b0;stroke-width:1;"/>
   <line x1="316" y1="460" x2="203" y2="563" style="stroke:#0b0;stroke-width:1;"/>
   <line x1="318.5" y1="460" x2="322.03553390593" y2="463.53553390593" style="stroke:#0b0;stroke-width:2;"/>
   <line x1="318.5" y1="460" x2="322.03553390593" y2="456.46446609407" style="stroke:#0b0;stroke-width:2;"/>
   <line x1="198" y1="563" x2="201.53553390593" y2="566.53553390593" style="stroke:#0b0;stroke-width:2;"/>
   <line x1="198" y1="563" x2="201.53553390593" y2="559.46446609407" style="stroke:#0b0;stroke-width:2;"/>
   <line x1="681" y1="189" x2="691" y2="189" style="stroke:#bbb;stroke-width:1;"/>
   <line x1="783" y1="530" x2="793" y2="530" style="stroke:#bbb;stroke-width:1;"/>
   <line x1="691" y1="189" x2="783" y2="530" style="stroke:#bbb;stroke-width:1;"/>
   <line x1="688.5" y1="189" x2="684.96446609407" y2="192.53553390593" style="stroke:#bbb;stroke-width:2;"/>
   <line x1="688.5" y1="189" x2="684.96446609407" y2="185.46446609407" style="stroke:#bbb;stroke-width:2;"/>
   <line x1="788" y1="530" x2="784.46446609407" y2="533.53553390593" style="stroke:#bbb;stroke-width:2;"/>
   <line x1="788" y1="530" x2="784.46446609407" y2="526.46446609407" style="stroke:#bbb;stroke-width:2;"/>
   <line x1="600" y1="169" x2="590" y2="169" style="stroke:#333;stroke-width:1;"/>
   <line x1="464" y1="220" x2="454" y2="220" style="stroke:#333;stroke-width:1;"/>
   <line x1="590" y1="169" x2="464" y2="220" style="stroke:#333;stroke-width:1;"/>
   <line x1="592.5" y1="169" x2="596.03553390593" y2="172.53553390593" style="stroke:#333;stroke-width:2;"/>
   <line x1="592.5" y1="169" x2="596.03553390593" y2="165.46446609407" style="stroke:#333;stroke-width:2;"/>
   <line x1="459" y1="220" x2="462.53553390593" y2="223.53553390593" style="stroke:#333;stroke-width:2;"/>
   <line x1="459" y1="220" x2="462.53553390593" y2="216.46446609407" style="stroke:#333;stroke-width:2;"/>
   <line x1="612" y1="712" x2="622" y2="712" style="stroke:#bbb;stroke-width:1;"/>
   <line x1="783" y1="530" x2="793" y2="530" style="stroke:#bbb;stroke-width:1;"/>
   <line x1="622" y1="712" x2="783" y2="530" style="stroke:#bbb;stroke-width:1;"/>
   <line x1="619.5" y1="712" x2="615.96446609407" y2="715.53553390593" style="stroke:#bbb;stroke-width:2;"/>
   <line x1="619.5" y1="712" x2="615.96446609407" y2="708.46446609407" style="stroke:#bbb;stroke-width:2;"/>
   <line x1="788" y1="530" x2="784.46446609407" y2="533.53553390593" style="stroke:#bbb;stroke-width:2;"/>
   <line x1="788" y1="530" x2="784.46446609407" y2="526.46446609407" style="stroke:#bbb;stroke-width:2;"/>
   <line x1="526" y1="732" x2="516" y2="732" style="stroke:#b0b;stroke-width:1;"/>
   <line x1="517" y1="607" x2="527" y2="607" style="stroke:#b0b;stroke-width:1;"/>
   <line x1="516" y1="732" x2="517" y2="607" style="stroke:#b0b;stroke-width:1;"/>
   <line x1="518.5" y1="732" x2="522.03553390593" y2="735.53553390593" style="stroke:#b0b;stroke-width:2;"/>
   <line x1="518.5" y1="732" x2="522.03553390593" y2="728.46446609407" style="stroke:#b0b;stroke-width:2;"/>
   <line x1="522" y1="607" x2="518.46446609407" y2="610.53553390593" style="stroke:#b0b;stroke-width:2;"/>
   <line x1="522" y1="607" x2="518.46446609407" y2="603.46446609407" style="stroke:#b0b;stroke-width:2;"/>
   <line x1="1341" y1="452" x2="1331" y2="452" style="stroke:#b0b;stroke-width:1;"/>
   <line x1="1331" y1="539" x2="1341" y2="539" style="stroke:#b0b;stroke-width:1;"/>
   <line x1="1331" y1="452" x2="1331" y2="539" style="stroke:#b0b;stroke-width:1;"/>
   <line x1="1333.5" y1="452" x2="1337.0355339059" y2="455.53553390593" style="stroke:#b0b;stroke-width:2;"/>
   <line x1="1333.5" y1="452" x2="1337.0355339059" y2="448.46446609407" style="stroke:#b0b;stroke-width:2;"/>
   <line x1="1336" y1="539" x2="1332.4644660941" y2="542.53553390593" style="stroke:#b0b;stroke-width:2;"/>
   <line x1="1336" y1="539" x2="1332.4644660941" y2="535.46446609407" style="stroke:#b0b;stroke-width:2;"/>
   <rect width="125" height="20" x="1094" y="529" style="fill:#007;stroke:black;"/>
   <text width="125" height="20" x="1099" y="543" style="fill:#fff;" font-family="Arial" font-size="16px"> address</text>
   <rect width="125" height="20" x="1094" y="549" style="fill:#aea;stroke:black;"/>
   <text width="125" height="20" x="1099" y="563" style="fill:black;" font-family="Arial" font-size="16px">id</text>
   <rect width="125" height="20" x="1094" y="569" style="fill:none;stroke:black;"/>
   <text width="125" height="20" x="1099" y="583" style="fill:black;" font-family="Arial" font-size="16px">email</text>
   <rect width="125" height="20" x="1094" y="589" style="fill:none;stroke:black;"/>
   <text width="125" height="20" x="1099" y="603" style="fill:black;" font-family="Arial" font-size="16px">first_name</text>
   <rect width="125" height="20" x="1094" y="609" style="fill:none;stroke:black;"/>
   <text width="125" height="20" x="1099" y="623" style="fill:black;" font-family="Arial" font-size="16px">is_default</text>
   <rect width="125" height="20" x="1094" y="629" style="fill:none;stroke:black;"/>
   <text width="125" height="20" x="1099" y="643" style="fill:black;" font-family="Arial" font-size="16px">last_name</text>
   <rect width="125" height="20" x="1094" y="649" style="fill:none;stroke:black;"/>
   <text width="125" height="20" x="1099" y="663" style="fill:black;" font-family="Arial" font-size="16px">phone</text>
   <rect width="125" height="20" x="1094" y="669" style="fill:none;stroke:black;"/>
   <text width="125" height="20" x="1099" y="683" style="fill:black;" font-family="Arial" font-size="16px">specific_address</text>
   <rect width="125" height="20" x="1094" y="689" style="fill:none;stroke:black;"/>
   <text width="125" height="20" x="1099" y="703" style="fill:black;" font-family="Arial" font-size="16px">user_id</text>
   <rect width="125" height="20" x="1094" y="709" style="fill:none;stroke:black;"/>
   <text width="125" height="20" x="1099" y="723" style="fill:black;" font-family="Arial" font-size="16px">ward_code</text>
   <rect width="88" height="20" x="109" y="347" style="fill:#007;stroke:black;"/>
   <text width="88" height="20" x="114" y="361" style="fill:#fff;" font-family="Arial" font-size="16px"> brands</text>
   <rect width="88" height="20" x="109" y="367" style="fill:#aea;stroke:black;"/>
   <text width="88" height="20" x="114" y="381" style="fill:black;" font-family="Arial" font-size="16px">id</text>
   <rect width="88" height="20" x="109" y="387" style="fill:none;stroke:black;"/>
   <text width="88" height="20" x="114" y="401" style="fill:black;" font-family="Arial" font-size="16px">description</text>
   <rect width="88" height="20" x="109" y="407" style="fill:none;stroke:black;"/>
   <text width="88" height="20" x="114" y="421" style="fill:black;" font-family="Arial" font-size="16px">logo</text>
   <rect width="88" height="20" x="109" y="427" style="fill:none;stroke:black;"/>
   <text width="88" height="20" x="114" y="441" style="fill:black;" font-family="Arial" font-size="16px">name</text>
   <rect width="81" height="20" x="572" y="419" style="fill:#007;stroke:black;"/>
   <text width="81" height="20" x="577" y="433" style="fill:#fff;" font-family="Arial" font-size="16px"> carts</text>
   <rect width="81" height="20" x="572" y="439" style="fill:#aea;stroke:black;"/>
   <text width="81" height="20" x="577" y="453" style="fill:black;" font-family="Arial" font-size="16px">id</text>
   <rect width="81" height="20" x="572" y="459" style="fill:none;stroke:black;"/>
   <text width="81" height="20" x="577" y="473" style="fill:black;" font-family="Arial" font-size="16px">quantity</text>
   <rect width="81" height="20" x="572" y="479" style="fill:none;stroke:black;"/>
   <text width="81" height="20" x="577" y="493" style="fill:black;" font-family="Arial" font-size="16px">product_id</text>
   <rect width="81" height="20" x="572" y="499" style="fill:none;stroke:black;"/>
   <text width="81" height="20" x="577" y="513" style="fill:black;" font-family="Arial" font-size="16px">user_id</text>
   <rect width="88" height="20" x="105" y="533" style="fill:#007;stroke:black;"/>
   <text width="88" height="20" x="110" y="547" style="fill:#fff;" font-family="Arial" font-size="16px"> categories</text>
   <rect width="88" height="20" x="105" y="553" style="fill:#aea;stroke:black;"/>
   <text width="88" height="20" x="110" y="567" style="fill:black;" font-family="Arial" font-size="16px">id</text>
   <rect width="88" height="20" x="105" y="573" style="fill:none;stroke:black;"/>
   <text width="88" height="20" x="110" y="587" style="fill:black;" font-family="Arial" font-size="16px">description</text>
   <rect width="88" height="20" x="105" y="593" style="fill:none;stroke:black;"/>
   <text width="88" height="20" x="110" y="607" style="fill:black;" font-family="Arial" font-size="16px">image</text>
   <rect width="88" height="20" x="105" y="613" style="fill:none;stroke:black;"/>
   <text width="88" height="20" x="110" y="627" style="fill:black;" font-family="Arial" font-size="16px">name</text>
   <rect width="110" height="20" x="1341" y="509" style="fill:#007;stroke:black;"/>
   <text width="110" height="20" x="1346" y="523" style="fill:#fff;" font-family="Arial" font-size="16px"> districts</text>
   <rect width="110" height="20" x="1341" y="529" style="fill:none;stroke:black;"/>
   <text width="110" height="20" x="1346" y="543" style="fill:black;" font-family="Arial" font-size="16px">code</text>
   <rect width="110" height="20" x="1341" y="549" style="fill:none;stroke:black;"/>
   <text width="110" height="20" x="1346" y="563" style="fill:black;" font-family="Arial" font-size="16px">code_name</text>
   <rect width="110" height="20" x="1341" y="569" style="fill:none;stroke:black;"/>
   <text width="110" height="20" x="1346" y="583" style="fill:black;" font-family="Arial" font-size="16px">full_name</text>
   <rect width="110" height="20" x="1341" y="589" style="fill:none;stroke:black;"/>
   <text width="110" height="20" x="1346" y="603" style="fill:black;" font-family="Arial" font-size="16px">name</text>
   <rect width="110" height="20" x="1341" y="609" style="fill:none;stroke:black;"/>
   <text width="110" height="20" x="1346" y="623" style="fill:black;" font-family="Arial" font-size="16px">province_code</text>
   <rect width="84" height="20" x="1096" y="306" style="fill:#007;stroke:black;"/>
   <text width="84" height="20" x="1101" y="320" style="fill:#fff;" font-family="Arial" font-size="16px"> orders</text>
   <rect width="84" height="20" x="1096" y="326" style="fill:#aea;stroke:black;"/>
   <text width="84" height="20" x="1101" y="340" style="fill:black;" font-family="Arial" font-size="16px">id</text>
   <rect width="84" height="20" x="1096" y="346" style="fill:none;stroke:black;"/>
   <text width="84" height="20" x="1101" y="360" style="fill:black;" font-family="Arial" font-size="16px">date</text>
   <rect width="84" height="20" x="1096" y="366" style="fill:none;stroke:black;"/>
   <text width="84" height="20" x="1101" y="380" style="fill:black;" font-family="Arial" font-size="16px">total_price</text>
   <rect width="84" height="20" x="1096" y="386" style="fill:none;stroke:black;"/>
   <text width="84" height="20" x="1101" y="400" style="fill:black;" font-family="Arial" font-size="16px">address_id</text>
   <rect width="84" height="20" x="1096" y="406" style="fill:none;stroke:black;"/>
   <text width="84" height="20" x="1101" y="420" style="fill:black;" font-family="Arial" font-size="16px">status_id</text>
   <rect width="84" height="20" x="1096" y="426" style="fill:none;stroke:black;"/>
   <text width="84" height="20" x="1101" y="440" style="fill:black;" font-family="Arial" font-size="16px">user_id</text>
   <rect width="88" height="20" x="800" y="220" style="fill:#007;stroke:black;"/>
   <text width="88" height="20" x="805" y="234" style="fill:#fff;" font-family="Arial" font-size="16px"> order_detail</text>
   <rect width="88" height="20" x="800" y="240" style="fill:#aea;stroke:black;"/>
   <text width="88" height="20" x="805" y="254" style="fill:black;" font-family="Arial" font-size="16px">id</text>
   <rect width="88" height="20" x="800" y="260" style="fill:none;stroke:black;"/>
   <text width="88" height="20" x="805" y="274" style="fill:black;" font-family="Arial" font-size="16px">item_price</text>
   <rect width="88" height="20" x="800" y="280" style="fill:none;stroke:black;"/>
   <text width="88" height="20" x="805" y="294" style="fill:black;" font-family="Arial" font-size="16px">quantity</text>
   <rect width="88" height="20" x="800" y="300" style="fill:none;stroke:black;"/>
   <text width="88" height="20" x="805" y="314" style="fill:black;" font-family="Arial" font-size="16px">sub_total</text>
   <rect width="88" height="20" x="800" y="320" style="fill:none;stroke:black;"/>
   <text width="88" height="20" x="805" y="334" style="fill:black;" font-family="Arial" font-size="16px">unit_price</text>
   <rect width="88" height="20" x="800" y="340" style="fill:none;stroke:black;"/>
   <text width="88" height="20" x="805" y="354" style="fill:black;" font-family="Arial" font-size="16px">order_id</text>
   <rect width="88" height="20" x="800" y="360" style="fill:none;stroke:black;"/>
   <text width="88" height="20" x="805" y="374" style="fill:black;" font-family="Arial" font-size="16px">product_id</text>
   <rect width="95" height="20" x="1064" y="137" style="fill:#007;stroke:black;"/>
   <text width="95" height="20" x="1069" y="151" style="fill:#fff;" font-family="Arial" font-size="16px"> order_status</text>
   <rect width="95" height="20" x="1064" y="157" style="fill:#aea;stroke:black;"/>
   <text width="95" height="20" x="1069" y="171" style="fill:black;" font-family="Arial" font-size="16px">id</text>
   <rect width="95" height="20" x="1064" y="177" style="fill:none;stroke:black;"/>
   <text width="95" height="20" x="1069" y="191" style="fill:black;" font-family="Arial" font-size="16px">description</text>
   <rect width="95" height="20" x="1064" y="197" style="fill:none;stroke:black;"/>
   <text width="95" height="20" x="1069" y="211" style="fill:black;" font-family="Arial" font-size="16px">name</text>
   <rect width="88" height="20" x="1340" y="31" style="fill:#007;stroke:black;"/>
   <text width="88" height="20" x="1345" y="45" style="fill:#fff;" font-family="Arial" font-size="16px"> poster</text>
   <rect width="88" height="20" x="1340" y="51" style="fill:#aea;stroke:black;"/>
   <text width="88" height="20" x="1345" y="65" style="fill:black;" font-family="Arial" font-size="16px">id</text>
   <rect width="88" height="20" x="1340" y="71" style="fill:none;stroke:black;"/>
   <text width="88" height="20" x="1345" y="85" style="fill:black;" font-family="Arial" font-size="16px">description</text>
   <rect width="88" height="20" x="1340" y="91" style="fill:none;stroke:black;"/>
   <text width="88" height="20" x="1345" y="105" style="fill:black;" font-family="Arial" font-size="16px">image</text>
   <rect width="88" height="20" x="1340" y="111" style="fill:none;stroke:black;"/>
   <text width="88" height="20" x="1345" y="125" style="fill:black;" font-family="Arial" font-size="16px">is_active</text>
   <rect width="88" height="20" x="1340" y="131" style="fill:none;stroke:black;"/>
   <text width="88" height="20" x="1345" y="145" style="fill:black;" font-family="Arial" font-size="16px">subtitle</text>
   <rect width="88" height="20" x="1340" y="151" style="fill:none;stroke:black;"/>
   <text width="88" height="20" x="1345" y="165" style="fill:black;" font-family="Arial" font-size="16px">title</text>
   <rect width="88" height="20" x="1340" y="171" style="fill:none;stroke:black;"/>
   <text width="88" height="20" x="1345" y="185" style="fill:black;" font-family="Arial" font-size="16px">type</text>
   <rect width="128" height="20" x="326" y="190" style="fill:#007;stroke:black;"/>
   <text width="128" height="20" x="331" y="204" style="fill:#fff;" font-family="Arial" font-size="16px"> products</text>
   <rect width="128" height="20" x="326" y="210" style="fill:#aea;stroke:black;"/>
   <text width="128" height="20" x="331" y="224" style="fill:black;" font-family="Arial" font-size="16px">id</text>
   <rect width="128" height="20" x="326" y="230" style="fill:none;stroke:black;"/>
   <text width="128" height="20" x="331" y="244" style="fill:black;" font-family="Arial" font-size="16px">description</text>
   <rect width="128" height="20" x="326" y="250" style="fill:none;stroke:black;"/>
   <text width="128" height="20" x="331" y="264" style="fill:black;" font-family="Arial" font-size="16px">discount</text>
   <rect width="128" height="20" x="326" y="270" style="fill:none;stroke:black;"/>
   <text width="128" height="20" x="331" y="284" style="fill:black;" font-family="Arial" font-size="16px">image</text>
   <rect width="128" height="20" x="326" y="290" style="fill:none;stroke:black;"/>
   <text width="128" height="20" x="331" y="304" style="fill:black;" font-family="Arial" font-size="16px">in_stock</text>
   <rect width="128" height="20" x="326" y="310" style="fill:none;stroke:black;"/>
   <text width="128" height="20" x="331" y="324" style="fill:black;" font-family="Arial" font-size="16px">is_active</text>
   <rect width="128" height="20" x="326" y="330" style="fill:none;stroke:black;"/>
   <text width="128" height="20" x="331" y="344" style="fill:black;" font-family="Arial" font-size="16px">name</text>
   <rect width="128" height="20" x="326" y="350" style="fill:none;stroke:black;"/>
   <text width="128" height="20" x="331" y="364" style="fill:black;" font-family="Arial" font-size="16px">price</text>
   <rect width="128" height="20" x="326" y="370" style="fill:none;stroke:black;"/>
   <text width="128" height="20" x="331" y="384" style="fill:black;" font-family="Arial" font-size="16px">created_at</text>
   <rect width="128" height="20" x="326" y="390" style="fill:none;stroke:black;"/>
   <text width="128" height="20" x="331" y="404" style="fill:black;" font-family="Arial" font-size="16px">short_description</text>
   <rect width="128" height="20" x="326" y="410" style="fill:none;stroke:black;"/>
   <text width="128" height="20" x="331" y="424" style="fill:black;" font-family="Arial" font-size="16px">sold_quantity</text>
   <rect width="128" height="20" x="326" y="430" style="fill:none;stroke:black;"/>
   <text width="128" height="20" x="331" y="444" style="fill:black;" font-family="Arial" font-size="16px">brand_id</text>
   <rect width="128" height="20" x="326" y="450" style="fill:none;stroke:black;"/>
   <text width="128" height="20" x="331" y="464" style="fill:black;" font-family="Arial" font-size="16px">category_id</text>
   <rect width="89" height="20" x="1342" y="660" style="fill:#007;stroke:black;"/>
   <text width="89" height="20" x="1347" y="674" style="fill:#fff;" font-family="Arial" font-size="16px"> provinces</text>
   <rect width="89" height="20" x="1342" y="680" style="fill:none;stroke:black;"/>
   <text width="89" height="20" x="1347" y="694" style="fill:black;" font-family="Arial" font-size="16px">code</text>
   <rect width="89" height="20" x="1342" y="700" style="fill:none;stroke:black;"/>
   <text width="89" height="20" x="1347" y="714" style="fill:black;" font-family="Arial" font-size="16px">code_name</text>
   <rect width="89" height="20" x="1342" y="720" style="fill:none;stroke:black;"/>
   <text width="89" height="20" x="1347" y="734" style="fill:black;" font-family="Arial" font-size="16px">full_name</text>
   <rect width="89" height="20" x="1342" y="740" style="fill:none;stroke:black;"/>
   <text width="89" height="20" x="1347" y="754" style="fill:black;" font-family="Arial" font-size="16px">name</text>
   <rect width="81" height="20" x="600" y="59" style="fill:#007;stroke:black;"/>
   <text width="81" height="20" x="605" y="73" style="fill:#fff;" font-family="Arial" font-size="16px"> review</text>
   <rect width="81" height="20" x="600" y="79" style="fill:#aea;stroke:black;"/>
   <text width="81" height="20" x="605" y="93" style="fill:black;" font-family="Arial" font-size="16px">id</text>
   <rect width="81" height="20" x="600" y="99" style="fill:none;stroke:black;"/>
   <text width="81" height="20" x="605" y="113" style="fill:black;" font-family="Arial" font-size="16px">comment</text>
   <rect width="81" height="20" x="600" y="119" style="fill:none;stroke:black;"/>
   <text width="81" height="20" x="605" y="133" style="fill:black;" font-family="Arial" font-size="16px">date</text>
   <rect width="81" height="20" x="600" y="139" style="fill:none;stroke:black;"/>
   <text width="81" height="20" x="605" y="153" style="fill:black;" font-family="Arial" font-size="16px">vote</text>
   <rect width="81" height="20" x="600" y="159" style="fill:none;stroke:black;"/>
   <text width="81" height="20" x="605" y="173" style="fill:black;" font-family="Arial" font-size="16px">product_id</text>
   <rect width="81" height="20" x="600" y="179" style="fill:none;stroke:black;"/>
   <text width="81" height="20" x="605" y="193" style="fill:black;" font-family="Arial" font-size="16px">user_id</text>
   <rect width="50" height="20" x="527" y="577" style="fill:#007;stroke:black;"/>
   <text width="50" height="20" x="532" y="591" style="fill:#fff;" font-family="Arial" font-size="16px"> roles</text>
   <rect width="50" height="20" x="527" y="597" style="fill:#aea;stroke:black;"/>
   <text width="50" height="20" x="532" y="611" style="fill:black;" font-family="Arial" font-size="16px">id</text>
   <rect width="50" height="20" x="527" y="617" style="fill:none;stroke:black;"/>
   <text width="50" height="20" x="532" y="631" style="fill:black;" font-family="Arial" font-size="16px">name</text>
   <rect width="126" height="20" x="793" y="500" style="fill:#007;stroke:black;"/>
   <text width="126" height="20" x="798" y="514" style="fill:#fff;" font-family="Arial" font-size="16px"> users</text>
   <rect width="126" height="20" x="793" y="520" style="fill:#aea;stroke:black;"/>
   <text width="126" height="20" x="798" y="534" style="fill:black;" font-family="Arial" font-size="16px">id</text>
   <rect width="126" height="20" x="793" y="540" style="fill:none;stroke:black;"/>
   <text width="126" height="20" x="798" y="554" style="fill:black;" font-family="Arial" font-size="16px">email</text>
   <rect width="126" height="20" x="793" y="560" style="fill:none;stroke:black;"/>
   <text width="126" height="20" x="798" y="574" style="fill:black;" font-family="Arial" font-size="16px">first_name</text>
   <rect width="126" height="20" x="793" y="580" style="fill:none;stroke:black;"/>
   <text width="126" height="20" x="798" y="594" style="fill:black;" font-family="Arial" font-size="16px">is_active</text>
   <rect width="126" height="20" x="793" y="600" style="fill:none;stroke:black;"/>
   <text width="126" height="20" x="798" y="614" style="fill:black;" font-family="Arial" font-size="16px">last_name</text>
   <rect width="126" height="20" x="793" y="620" style="fill:none;stroke:black;"/>
   <text width="126" height="20" x="798" y="634" style="fill:black;" font-family="Arial" font-size="16px">password</text>
   <rect width="126" height="20" x="793" y="640" style="fill:none;stroke:black;"/>
   <text width="126" height="20" x="798" y="654" style="fill:black;" font-family="Arial" font-size="16px">phone</text>
   <rect width="126" height="20" x="793" y="660" style="fill:none;stroke:black;"/>
   <text width="126" height="20" x="798" y="674" style="fill:black;" font-family="Arial" font-size="16px">created_at</text>
   <rect width="126" height="20" x="793" y="680" style="fill:none;stroke:black;"/>
   <text width="126" height="20" x="798" y="694" style="fill:black;" font-family="Arial" font-size="16px">verification_code</text>
   <rect width="86" height="20" x="526" y="682" style="fill:#007;stroke:black;"/>
   <text width="86" height="20" x="531" y="696" style="fill:#fff;" font-family="Arial" font-size="16px"> users_roles</text>
   <rect width="86" height="20" x="526" y="702" style="fill:#aea;stroke:black;"/>
   <text width="86" height="20" x="531" y="716" style="fill:black;" font-family="Arial" font-size="16px">user_id</text>
   <rect width="86" height="20" x="526" y="722" style="fill:#aea;stroke:black;"/>
   <text width="86" height="20" x="531" y="736" style="fill:black;" font-family="Arial" font-size="16px">role_id</text>
   <rect width="98" height="20" x="1341" y="302" style="fill:#007;stroke:black;"/>
   <text width="98" height="20" x="1346" y="316" style="fill:#fff;" font-family="Arial" font-size="16px"> wards</text>
   <rect width="98" height="20" x="1341" y="322" style="fill:none;stroke:black;"/>
   <text width="98" height="20" x="1346" y="336" style="fill:black;" font-family="Arial" font-size="16px">code</text>
   <rect width="98" height="20" x="1341" y="342" style="fill:none;stroke:black;"/>
   <text width="98" height="20" x="1346" y="356" style="fill:black;" font-family="Arial" font-size="16px">code_name</text>
   <rect width="98" height="20" x="1341" y="362" style="fill:none;stroke:black;"/>
   <text width="98" height="20" x="1346" y="376" style="fill:black;" font-family="Arial" font-size="16px">full_name</text>
   <rect width="98" height="20" x="1341" y="382" style="fill:none;stroke:black;"/>
   <text width="98" height="20" x="1346" y="396" style="fill:black;" font-family="Arial" font-size="16px">full_name_en</text>
   <rect width="98" height="20" x="1341" y="402" style="fill:none;stroke:black;"/>
   <text width="98" height="20" x="1346" y="416" style="fill:black;" font-family="Arial" font-size="16px">name</text>
   <rect width="98" height="20" x="1341" y="422" style="fill:none;stroke:black;"/>
   <text width="98" height="20" x="1346" y="436" style="fill:black;" font-family="Arial" font-size="16px">name_en</text>
   <rect width="98" height="20" x="1341" y="442" style="fill:none;stroke:black;"/>
   <text width="98" height="20" x="1346" y="456" style="fill:black;" font-family="Arial" font-size="16px">district_code</text>
</svg>
